<?xml version="1.0" standalone="no"?>
<!DOCTYPE svg PUBLIC "-//W3C//DTD SVG 20010904//EN"
 "http://www.w3.org/TR/2001/REC-SVG-20010904/DTD/svg10.dtd">
<svg version="1.0" xmlns="http://www.w3.org/2000/svg"
 width="1024.000000pt" height="1024.000000pt" viewBox="0 0 1024.000000 1024.000000"
 preserveAspectRatio="xMidYMid meet">
<metadata>
Created by potrace 1.15, written by Peter Selinger 2001-2017
</metadata>
<g transform="translate(0.000000,1024.000000) scale(0.100000,-0.100000)"
fill="#000000" stroke="none">
<path d="M16 10221 c-13 -14 -16 -33 -14 -80 l3 -62 80 81 80 80 -66 0 c-52 0
-70 -4 -83 -19z"/>
<path d="M117 10122 l-118 -118 3 -62 3 -62 180 180 180 180 -65 0 -65 0 -118
-118z"/>
<path d="M217 10022 l-218 -218 3 -62 3 -62 280 280 280 280 -65 0 -65 0 -218
-218z"/>
<path d="M317 9922 l-318 -318 3 -62 3 -62 380 380 380 380 -65 0 -65 0 -318
-318z"/>
<path d="M417 9822 l-418 -418 3 -62 3 -62 480 480 480 480 -65 0 -65 0 -418
-418z"/>
<path d="M517 9722 l-518 -518 3 -62 3 -62 580 580 580 580 -65 0 -65 0 -518
-518z"/>
<path d="M617 9622 l-618 -618 3 -62 3 -62 680 680 680 680 -65 0 -65 0 -618
-618z"/>
<path d="M717 9522 l-718 -718 3 -62 3 -62 780 780 780 780 -65 0 -65 0 -718
-718z"/>
<path d="M817 9422 l-818 -818 3 -62 3 -62 880 880 880 880 -65 0 -65 0 -818
-818z"/>
<path d="M917 9322 l-918 -918 3 -62 3 -62 980 980 980 980 -65 0 -65 0 -918
-918z"/>
<path d="M1017 9222 l-1018 -1018 3 -62 3 -62 1080 1080 1080 1080 -65 0 -65
0 -1018 -1018z"/>
<path d="M1117 9122 l-1118 -1118 3 -62 3 -62 1180 1180 1180 1180 -65 0 -65
0 -1118 -1118z"/>
<path d="M1217 9022 l-1217 -1217 0 -65 0 -65 138 140 c75 77 159 169 187 204
40 52 166 165 202 183 4 2 465 461 1023 1021 l1015 1017 -65 0 -65 0 -1218
-1218z"/>
<path d="M1650 9255 c-697 -697 -975 -982 -950 -971 19 7 60 19 91 26 l57 13
958 958 959 959 -65 0 -65 0 -985 -985z"/>
<path d="M2261 9666 c-533 -533 -570 -572 -514 -544 33 16 78 32 100 35 38 5
77 42 579 544 l539 539 -65 0 -65 0 -574 -574z"/>
<path d="M2497 9702 l-538 -538 53 -12 52 -13 551 551 550 550 -65 0 -65 0
-538 -538z"/>
<path d="M2673 9678 l-562 -563 38 -27 37 -27 590 590 589 589 -65 0 -65 0
-562 -562z"/>
<path d="M2827 9632 l-608 -608 23 -37 c13 -20 25 -36 28 -37 3 0 295 290 650
645 l645 645 -65 0 -65 0 -608 -608z"/>
<path d="M2963 9568 l-673 -673 8 -58 7 -57 730 730 730 730 -65 0 -65 0 -672
-672z"/>
<path d="M3067 9472 l-768 -768 3 -62 3 -62 830 830 830 830 -65 0 -65 0 -768
-768z"/>
<path d="M3167 9372 l-868 -868 3 -62 3 -62 930 930 930 930 -65 0 -65 0 -868
-868z"/>
<path d="M3267 9272 l-968 -968 3 -62 3 -62 1030 1030 1030 1030 -65 0 -65 0
-968 -968z"/>
<path d="M3485 9290 l-950 -950 65 0 65 0 950 950 950 950 -65 0 -65 0 -950
-950z"/>
<path d="M3685 9290 l-950 -950 65 0 65 0 950 950 950 950 -65 0 -65 0 -950
-950z"/>
<path d="M3885 9290 l-950 -950 65 0 65 0 950 950 950 950 -65 0 -65 0 -950
-950z"/>
<path d="M4085 9290 l-950 -950 65 0 65 0 950 950 950 950 -65 0 -65 0 -950
-950z"/>
<path d="M4285 9290 l-950 -950 65 0 65 0 950 950 950 950 -65 0 -65 0 -950
-950z"/>
<path d="M4485 9290 l-950 -950 65 0 65 0 950 950 950 950 -65 0 -65 0 -950
-950z"/>
<path d="M4685 9290 l-950 -950 65 0 65 0 950 950 950 950 -65 0 -65 0 -950
-950z"/>
<path d="M4885 9290 l-950 -950 65 0 65 0 950 950 950 950 -65 0 -65 0 -950
-950z"/>
<path d="M5085 9290 l-950 -950 65 0 65 0 950 950 950 950 -65 0 -65 0 -950
-950z"/>
<path d="M5285 9290 l-950 -950 65 0 65 0 950 950 950 950 -65 0 -65 0 -950
-950z"/>
<path d="M5485 9290 l-950 -950 65 0 65 0 950 950 950 950 -65 0 -65 0 -950
-950z"/>
<path d="M5685 9290 l-950 -950 65 0 66 0 332 338 c183 185 347 351 365 369
17 18 295 293 617 613 l585 580 -65 0 -65 0 -950 -950z"/>
<path d="M6295 9700 l-540 -540 65 0 65 0 540 540 540 540 -65 0 -65 0 -540
-540z"/>
<path d="M6490 9695 c-299 -299 -542 -546 -540 -547 3 -2 23 -12 44 -21 l40
-18 565 565 566 566 -65 0 -65 0 -545 -545z"/>
<path d="M6655 9660 l-580 -580 33 -32 32 -33 613 613 612 612 -65 0 -65 0
-580 -580z"/>
<path d="M6802 9607 l-632 -632 18 -47 18 -47 679 679 680 680 -65 0 -65 0
-633 -633z"/>
<path d="M6927 9532 l-708 -708 3 -62 3 -62 770 770 770 770 -65 0 -65 0 -708
-708z"/>
<path d="M7027 9432 l-808 -808 3 -62 3 -62 870 870 870 870 -65 0 -65 0 -808
-808z"/>
<path d="M7127 9332 l-908 -908 3 -62 3 -62 970 970 970 970 -65 0 -65 0 -908
-908z"/>
<path d="M7227 9232 l-1007 -1007 0 -65 0 -65 90 90 c77 76 90 94 90 122 0 31
2 33 33 33 29 0 112 79 982 950 l950 950 -65 0 -65 0 -1008 -1008z"/>
<path d="M7485 9290 l-950 -950 65 0 65 0 950 950 950 950 -65 0 -65 0 -950
-950z"/>
<path d="M7686 9291 l-949 -949 58 -7 57 -8 957 957 956 956 -65 0 -65 0 -949
-949z"/>
<path d="M7876 9281 l-959 -959 39 -11 c21 -6 46 -11 54 -11 8 0 452 437 985
970 l970 970 -65 0 -65 0 -959 -959z"/>
<path d="M8053 9258 l-983 -983 46 -19 46 -19 1002 1002 1001 1001 -65 0 -65
0 -982 -982z"/>
<path d="M8220 9225 c-558 -558 -1012 -1016 -1010 -1018 3 -2 20 -14 39 -27
l33 -23 1042 1042 1041 1041 -65 0 -65 0 -1015 -1015z"/>
<path d="M8377 9182 l-1057 -1057 36 -29 36 -29 1087 1087 1086 1086 -65 0
-65 0 -1058 -1058z"/>
<path d="M8528 9133 l-1107 -1108 30 -35 29 -35 1143 1143 1142 1142 -65 0
-65 0 -1107 -1107z"/>
<path d="M8672 9077 l-1164 -1164 22 -43 22 -43 1204 1204 c662 662 1204 1205
1204 1206 0 2 -28 3 -63 3 l-62 0 -1163 -1163z"/>
<path d="M8804 9008 l-1232 -1233 17 -47 16 -48 1280 1280 1280 1280 -65 0
-65 0 -1231 -1232z"/>
<path d="M8927 8932 l-1308 -1308 8 -57 8 -57 1303 1303 1303 1303 -3 62 -3
62 -1308 -1308z"/>
<path d="M8932 8737 l-1303 -1303 3 -62 3 -62 1303 1303 1303 1303 -3 62 -3
62 -1303 -1303z"/>
<path d="M8932 8537 l-1303 -1303 3 -62 3 -62 1303 1303 1303 1303 -3 62 -3
62 -1303 -1303z"/>
<path d="M8932 8337 l-1303 -1303 3 -62 3 -62 1303 1303 1303 1303 -3 62 -3
62 -1303 -1303z"/>
<path d="M8932 8137 l-1303 -1303 3 -62 3 -62 1303 1303 1303 1303 -3 62 -3
62 -1303 -1303z"/>
<path d="M8841 7846 c-1327 -1327 -1396 -1394 -1409 -1374 -14 19 -9 26 78
113 l92 92 -30 34 -31 34 -93 -93 c-89 -87 -94 -91 -111 -75 -16 17 -12 22 75
110 l93 93 -33 32 -32 33 -93 -93 c-87 -86 -94 -91 -112 -78 -19 14 -16 19 75
111 l95 96 -35 30 -34 29 -96 -94 c-89 -89 -96 -94 -115 -80 -18 14 -15 19 75
110 l95 95 -30 25 c-16 13 -34 24 -40 24 -5 0 -51 -41 -101 -91 -85 -84 -93
-90 -114 -79 -22 12 -20 15 71 109 l94 96 -3 59 -3 60 -132 -132 c-124 -123
-133 -130 -152 -116 -18 14 -12 22 133 167 l152 152 0 65 0 65 -197 -197
c-186 -185 -199 -196 -220 -185 -22 12 -13 22 197 232 l220 220 -6 50 c-4 27
-9 52 -11 55 -2 2 -119 -111 -261 -252 -239 -238 -259 -256 -282 -247 -23 9
-11 23 250 284 l274 274 -19 40 c-10 23 -21 41 -24 41 -3 0 -141 -135 -306
-299 -279 -279 -302 -299 -329 -294 -27 6 -15 19 289 323 l317 317 -37 28 -36
28 -333 -332 c-312 -312 -334 -332 -360 -325 -27 6 -16 19 309 344 l338 338
-31 16 c-17 9 -39 16 -49 16 -10 0 -166 -148 -364 -346 -325 -325 -348 -345
-378 -342 -31 3 -21 13 322 356 l353 352 -66 0 -65 0 -349 -349 c-324 -325
-352 -349 -388 -353 l-38 -4 126 127 126 126 -32 7 c-75 14 -78 13 -220 -129
-118 -118 -141 -136 -175 -141 l-40 -6 140 141 140 141 -65 0 -65 0 -155 -155
c-135 -134 -162 -157 -205 -169 l-49 -15 164 165 165 166 -70 -6 -70 -7 -190
-188 c-157 -156 -201 -195 -255 -221 l-65 -32 210 212 c182 184 206 211 178
205 -33 -7 -33 -6 -33 32 l0 38 -387 -382 c-495 -488 -492 -485 -885 -885
l-331 -338 -22 -82 -22 -83 -64 -3 -65 -3 -239 -239 -240 -240 65 0 65 0 453
453 c443 441 453 450 422 387 -28 -57 -78 -111 -418 -452 l-387 -388 65 0 65
0 292 292 c290 290 292 292 278 243 -14 -45 -40 -75 -268 -302 -139 -139 -248
-253 -242 -253 5 0 24 -11 40 -24 l30 -25 197 197 c194 193 198 196 198 163 0
-32 -17 -52 -180 -216 l-180 -181 16 -48 17 -48 156 156 157 156 -4 -38 c-3
-35 -19 -54 -158 -193 l-154 -154 0 -65 0 -65 160 160 c159 159 160 160 160
125 0 -32 -14 -49 -160 -195 l-160 -160 0 -65 0 -65 169 169 c164 164 168 167
175 140 7 -26 -6 -40 -168 -203 -134 -134 -176 -182 -176 -201 0 -109 -106
-219 -210 -220 -31 0 -47 -11 -130 -95 l-95 -95 65 0 65 0 340 340 c327 327
340 339 347 313 7 -26 -11 -47 -302 -338 l-310 -310 52 -13 53 -12 272 272
c259 259 273 271 282 248 9 -23 -9 -43 -251 -286 l-261 -262 29 -36 29 -36
251 251 c241 241 251 249 261 226 11 -23 -3 -38 -240 -275 l-252 -252 3 -61 4
-62 269 269 c255 255 269 267 283 249 14 -19 -1 -36 -269 -305 l-285 -285 0
-65 0 -65 156 155 c111 111 161 168 175 201 26 60 74 108 91 91 10 -10 32 8
104 79 89 89 92 91 104 69 11 -21 5 -29 -78 -114 l-91 -91 27 -37 27 -37 92
92 c89 87 93 90 107 72 14 -19 9 -26 -77 -113 l-92 -92 33 -32 32 -33 90 90
c86 85 90 88 104 70 14 -19 9 -26 -75 -110 l-89 -91 33 -32 33 -32 89 90 c84
85 90 89 107 73 18 -16 15 -21 -72 -108 l-90 -90 32 -33 33 -32 91 91 c85 85
93 90 113 78 20 -13 18 -17 -72 -107 l-92 -93 35 -29 35 -29 95 95 c91 89 96
93 113 77 16 -17 12 -22 -74 -109 l-91 -91 37 -28 36 -28 97 96 c91 90 98 95
117 81 18 -14 15 -19 -75 -109 -101 -102 -100 -97 -39 -130 25 -13 28 -12 120
81 51 52 98 94 104 94 5 0 17 -5 25 -10 12 -8 -4 -29 -84 -109 -55 -55 -93
-100 -86 -103 17 -5 -8 -54 -47 -89 -31 -29 -84 -59 -105 -59 -7 0 -56 -43
-108 -95 l-95 -95 65 0 65 0 250 250 c203 203 253 249 270 244 11 -4 22 -8 25
-11 2 -2 -105 -113 -238 -246 l-242 -242 46 -19 46 -19 244 244 c195 194 249
243 267 241 12 -2 24 -6 27 -8 2 -3 -110 -118 -248 -257 l-253 -253 24 -42 23
-41 279 279 c231 231 285 280 307 280 16 0 28 -3 28 -8 0 -4 -135 -142 -300
-307 l-300 -300 0 -65 0 -65 358 358 c333 333 359 357 392 357 34 0 22 -12
-358 -393 l-392 -392 0 -65 0 -65 453 453 c423 423 454 452 487 452 34 0 18
-17 -451 -488 l-487 -487 -5 -69 -5 -69 557 556 c515 514 559 555 594 559 36
4 -5 -39 -850 -884 l-888 -888 65 0 65 0 900 899 c830 829 903 899 940 906 38
6 -11 -45 -865 -899 l-905 -906 65 0 65 0 930 929 c859 859 934 932 985 951
53 20 13 -21 -895 -929 l-950 -951 65 0 65 0 980 980 c825 825 984 980 1007
980 16 0 28 -3 28 -7 0 -5 -438 -446 -972 -980 l-973 -973 65 0 65 0 950 950
c904 904 950 948 968 933 17 -16 -26 -61 -915 -950 l-933 -933 65 0 65 0 897
897 c855 854 899 897 915 880 17 -16 -25 -60 -862 -897 l-880 -880 65 0 65 0
842 842 c802 802 844 842 860 825 17 -16 -22 -57 -807 -842 l-825 -825 65 0
65 0 790 790 c751 751 790 788 808 773 17 -16 -19 -53 -755 -790 l-773 -773
65 0 65 0 638 638 c372 372 637 645 637 655 0 11 5 15 11 11 6 -4 49 32 100
82 85 84 89 87 103 69 14 -19 9 -26 -70 -105 -46 -47 -84 -90 -84 -95 0 -5 12
-22 27 -37 l27 -28 88 87 c83 83 89 87 105 70 17 -16 13 -22 -71 -106 l-89
-89 29 -36 29 -36 90 90 c86 86 91 89 108 73 16 -17 12 -22 -74 -109 l-91 -91
30 -34 31 -34 91 90 c87 86 92 89 106 70 13 -18 8 -25 -75 -110 l-90 -90 30
-35 29 -34 90 89 c85 85 91 89 107 72 17 -16 13 -22 -70 -105 -48 -48 -87 -92
-87 -98 0 -7 7 -17 15 -24 8 -7 15 -24 15 -39 0 -23 12 -14 103 77 99 98 104
102 120 84 16 -17 10 -24 -103 -137 l-120 -120 0 -65 0 -65 150 150 c142 142
151 149 167 132 17 -16 9 -26 -150 -185 l-167 -167 0 -65 0 -65 198 198 c155
155 200 195 210 185 7 -7 12 -17 12 -22 0 -6 -96 -108 -214 -226 l-214 -215
-20 -70 c-10 -38 -23 -79 -27 -90 -4 -11 117 104 268 255 262 260 277 273 291
255 14 -19 -6 -41 -345 -385 -425 -433 -319 -326 -1132 -1132 l-658 -653 63
-3 62 -3 1043 1043 c993 993 1044 1042 1060 1025 17 -16 -32 -67 -1007 -1042
l-1025 -1025 65 0 65 0 990 990 c942 942 990 988 1008 973 17 -16 -28 -63
-955 -990 l-973 -973 65 0 65 0 937 937 c893 893 939 937 955 920 17 -16 -27
-62 -902 -937 l-920 -920 65 0 65 0 885 885 c875 875 910 908 910 851 0 -6
-388 -399 -862 -873 l-863 -863 65 0 65 0 833 833 c790 789 834 831 848 812
14 -18 -30 -64 -798 -832 l-813 -813 65 0 65 0 779 779 c744 744 781 779 794
759 14 -19 -23 -58 -744 -779 l-759 -759 65 0 65 0 725 725 c689 689 725 723
743 708 17 -16 -15 -50 -690 -725 l-708 -708 65 0 65 0 672 672 c640 640 674
672 690 655 17 -16 -14 -49 -637 -672 l-655 -655 65 0 65 0 622 622 c593 593
624 622 640 605 17 -16 -12 -47 -587 -622 l-605 -605 65 0 65 0 580 580 c548
547 581 578 600 564 18 -14 -10 -44 -545 -579 l-565 -565 65 0 65 0 545 545
c525 525 568 564 594 538 4 -4 -235 -249 -531 -545 l-538 -538 65 0 65 0 535
535 c503 503 537 535 570 535 34 0 16 -19 -500 -535 l-535 -535 65 0 65 0 541
541 c499 499 545 543 600 565 57 23 47 12 -506 -541 l-565 -565 65 0 65 0 758
758 757 757 0 65 0 65 -85 -85 -86 -85 27 60 c16 37 49 83 85 120 l59 61 0 64
0 64 -53 -52 -53 -52 4 39 c3 31 14 49 53 87 49 48 49 49 49 113 l0 65 -58
-57 c-32 -32 -61 -54 -65 -51 -20 20 -2 54 58 114 l65 64 0 65 0 66 -85 -85
c-81 -81 -85 -83 -99 -65 -14 19 -8 27 85 120 l99 100 0 65 0 65 -125 -125
c-118 -118 -126 -124 -142 -107 -17 16 -10 24 125 160 l142 142 0 65 0 65
-174 -174 c-164 -164 -175 -173 -194 -159 -20 14 -13 22 173 208 l195 195 0
65 0 65 -228 -228 c-214 -214 -229 -227 -247 -213 -19 14 -8 27 228 263 l247
248 0 65 0 65 -283 -283 c-270 -270 -284 -282 -300 -265 -16 18 -2 33 283 318
l300 300 0 65 0 65 -335 -335 c-318 -318 -336 -334 -352 -317 -17 16 0 35 335
370 l352 352 0 65 0 65 -388 -388 c-370 -370 -389 -387 -405 -370 -15 18 3 38
388 423 l405 405 0 65 0 65 -438 -438 c-240 -240 -442 -437 -448 -437 -6 0
-16 6 -22 13 -9 10 94 118 448 472 l460 460 0 65 0 65 -495 -495 c-471 -471
-496 -494 -512 -477 -17 16 7 42 495 530 l512 512 0 65 0 65 -548 -548 c-522
-522 -549 -547 -565 -530 -15 18 11 46 548 583 l565 565 0 65 0 65 -599 -599
c-569 -569 -600 -598 -619 -584 -20 13 7 42 599 634 l619 619 0 65 0 65 -653
-653 c-617 -617 -654 -652 -672 -638 -19 14 15 50 653 688 l672 673 0 65 0 65
-708 -708 c-675 -675 -709 -707 -725 -690 -15 18 19 54 708 743 l725 725 0 65
0 65 -760 -760 c-723 -723 -761 -759 -777 -742 -17 16 20 55 760 795 l777 777
0 65 0 65 -812 -812 c-769 -768 -814 -811 -833 -797 -18 14 24 58 813 847
l832 832 0 65 0 65 -863 -863 c-474 -474 -867 -862 -873 -862 -57 0 -24 35
851 910 l885 885 0 65 0 65 -920 -920 c-875 -875 -921 -919 -937 -902 -17 16
27 62 920 955 l937 937 0 65 0 65 -973 -973 c-927 -927 -974 -972 -990 -955
-15 18 31 66 973 1008 l990 990 0 65 0 65 -1024 -1024 c-972 -972 -1024 -1023
-1046 -1011 -22 12 25 60 1024 1059 l1046 1046 0 65 0 65 -1080 -1080 c-1028
-1028 -1080 -1079 -1097 -1062 -17 17 35 70 1080 1115 l1097 1097 0 65 0 65
-1133 -1133 c-1079 -1079 -1134 -1132 -1150 -1115 -15 18 39 74 1133 1168
l1150 1150 0 65 0 65 -1185 -1185 c-1128 -1128 -1185 -1184 -1202 -1167 -17
17 40 75 1185 1220 l1202 1202 0 65 0 65 -1238 -1238 c-1179 -1179 -1239
-1237 -1255 -1220 -15 18 44 79 1238 1273 l1255 1255 0 65 0 65 -1285 -1285
c-1230 -1230 -1285 -1283 -1285 -1250 0 33 68 103 1285 1320 l1285 1285 0 65
0 65 -1256 -1255 c-1195 -1195 -1254 -1252 -1234 -1200 20 51 110 144 1256
1290 l1234 1235 0 65 0 65 -1211 -1210 c-1139 -1139 -1210 -1208 -1204 -1170
7 37 97 130 1211 1245 l1204 1205 0 65 0 65 -1193 -1193 c-1144 -1144 -1192
-1191 -1189 -1154 4 37 68 104 1193 1228 l1189 1189 0 65 0 65 -1190 -1190
c-1140 -1140 -1190 -1188 -1190 -1155 0 33 63 98 1190 1225 l1190 1190 0 65 0
65 -1195 -1195 c-1145 -1145 -1195 -1193 -1195 -1160 0 33 64 99 1195 1230
l1195 1195 0 65 0 65 -1203 -1203 c-661 -661 -1205 -1202 -1210 -1202 -4 0 -7
12 -7 28 0 23 190 217 1210 1237 l1210 1210 0 65 0 65 -1223 -1223 c-672 -672
-1225 -1222 -1228 -1222 -4 0 -9 11 -11 24 -4 21 162 191 1229 1258 l1233
1233 0 65 0 65 -1250 -1250 c-1249 -1249 -1269 -1268 -1270 -1210 0 6 567 577
1260 1270 l1260 1260 0 65 0 65 -1280 -1280 c-1279 -1279 -1299 -1298 -1300
-1240 0 6 581 591 1290 1300 l1290 1290 0 65 0 65 -1315 -1315 c-1246 -1246
-1315 -1313 -1329 -1295 -14 19 56 91 1314 1350 l1330 1330 0 65 0 65 -1355
-1355 c-1284 -1284 -1355 -1353 -1369 -1335 -14 19 58 93 1355 1391 l1370
1370 -3 62 -3 62 -1394 -1394z m-2591 -720 c553 -89 1038 -417 1330 -901 327
-542 355 -1244 71 -1817 l-58 -116 1186 -1045 c652 -575 1201 -1065 1219
-1089 83 -109 122 -232 122 -388 0 -165 -42 -289 -144 -427 -84 -115 -243
-215 -392 -248 -111 -25 -274 -17 -373 18 -137 48 -178 84 -485 427 -395 441
-826 928 -1361 1540 l-460 525 -114 -56 c-522 -259 -1148 -261 -1676 -5 -184
90 -329 192 -484 341 -302 291 -494 664 -562 1090 -17 104 -17 446 0 550 64
407 234 752 511 1039 317 329 712 524 1166 576 108 12 388 4 504 -14z"/>
<path d="M5716 6564 c-411 -74 -775 -350 -964 -729 -88 -178 -132 -371 -132
-584 0 -161 18 -277 65 -418 146 -437 491 -757 945 -875 139 -36 353 -48 491
-29 605 86 1063 543 1150 1150 15 105 6 338 -16 441 -56 258 -181 487 -365
670 -198 197 -447 328 -715 374 -112 20 -350 20 -459 0z m-416 -659 c-630
-630 -655 -654 -658 -623 -3 30 31 66 620 655 587 587 625 623 658 623 34 0
10 -24 -620 -655z m440 642 c0 -1 -245 -247 -544 -546 -529 -529 -544 -543
-533 -498 9 42 44 79 498 533 430 430 494 490 531 501 24 6 44 11 46 12 1 1 2
0 2 -2z m-340 -742 c-716 -716 -745 -744 -748 -713 -3 30 35 70 710 745 672
672 715 713 748 713 34 0 6 -29 -710 -745z m900 706 c0 -10 -1609 -1616 -1614
-1611 -29 31 -12 49 777 838 681 681 792 788 813 784 13 -2 24 -7 24 -11z
m133 -43 c15 -12 -83 -113 -837 -867 -815 -815 -854 -853 -866 -831 -12 22 30
65 831 866 464 464 846 844 850 844 3 0 13 -6 22 -12z m-983 -11 c0 -1 -160
-162 -356 -357 l-356 -355 35 70 c31 61 67 102 294 327 206 204 270 262 318
287 63 32 65 32 65 28z m248 -954 c-847 -847 -893 -891 -905 -870 -11 21 37
71 869 904 837 837 882 881 905 870 23 -10 -16 -51 -869 -904z m995 825 c15
-12 -90 -120 -897 -927 -872 -872 -914 -913 -926 -891 -12 22 33 68 891 926
497 497 906 904 910 904 3 0 13 -6 22 -12z m-795 -1025 c-878 -878 -923 -921
-941 -906 -17 16 26 61 905 940 878 878 923 921 941 906 17 -16 -26 -61 -905
-940z m1013 841 c11 -13 -109 -137 -914 -942 -882 -882 -927 -926 -944 -909
-17 16 27 62 907 942 509 509 928 925 931 925 4 0 12 -7 20 -16z m88 -112 c8
-16 -125 -153 -902 -930 -863 -863 -914 -912 -932 -898 -19 14 28 63 895 931
503 503 918 915 922 915 4 0 12 -8 17 -18z m-801 -1029 c-846 -846 -892 -891
-915 -880 -23 10 16 51 879 914 857 857 903 901 915 880 11 -21 -37 -71 -879
-914z m952 767 c0 -8 -384 -399 -854 -869 -809 -809 -855 -853 -882 -847 -26
7 10 45 846 881 581 581 877 870 882 862 4 -7 8 -19 8 -27z m52 -134 c4 -21
-106 -135 -804 -833 -809 -809 -827 -826 -858 -797 -5 5 1641 1654 1651 1654
4 0 9 -11 11 -24z m-704 -933 c-701 -701 -745 -743 -778 -743 -34 0 -5 30 740
775 745 745 775 774 778 743 3 -30 -36 -71 -740 -775z m100 -100 c-625 -625
-665 -663 -698 -663 -34 0 -9 26 660 695 668 669 695 694 698 663 3 -30 -33
-68 -660 -695z m648 464 c-3 -12 -252 -268 -553 -569 -514 -514 -551 -548
-583 -548 -34 0 -12 23 550 585 381 381 586 580 588 569 2 -8 1 -25 -2 -37z
m-58 -239 c-18 -46 -70 -102 -390 -423 -336 -338 -373 -372 -425 -393 -57 -22
-52 -16 387 423 245 245 446 445 447 445 1 0 -8 -24 -19 -52z m-236 -415 c-60
-67 -120 -126 -197 -193 -22 -19 25 32 105 113 80 81 146 147 148 147 2 0 -23
-30 -56 -67z"/>
<path d="M1266 8671 l-339 -339 69 5 69 5 232 231 c218 217 233 234 243 279
12 60 36 117 57 140 9 10 14 18 12 18 -2 0 -157 -153 -343 -339z"/>
<path d="M5190 8595 l-255 -255 65 0 65 0 193 192 193 193 -3 63 -3 62 -255
-255z"/>
<path d="M1330 8535 l-195 -195 65 0 65 0 133 133 133 133 -3 62 -3 62 -195
-195z"/>
<path d="M5290 8498 l-154 -158 64 0 65 0 93 92 93 92 -3 65 -3 66 -155 -157z"/>
<path d="M1430 8435 c-52 -52 -89 -95 -81 -95 9 0 12 -14 9 -55 l-3 -55 88 88
88 88 -3 62 -3 63 -95 -96z"/>
<path d="M5357 8364 l-88 -91 3 -61 3 -61 88 86 88 87 -3 65 -3 66 -88 -91z"/>
<path d="M1438 8243 l-88 -88 0 -65 0 -65 91 91 90 90 -3 62 -3 63 -87 -88z"/>
<path d="M2393 8198 l-93 -93 0 -65 0 -65 96 96 95 95 -3 62 -3 63 -92 -93z"/>
<path d="M5359 8166 l-87 -91 -4 -67 -4 -68 92 88 91 87 2 73 c0 39 0 71 -1
71 -2 -1 -42 -43 -89 -93z"/>
<path d="M6308 8113 l-88 -88 0 -65 0 -65 91 91 90 90 -3 62 -3 63 -87 -88z"/>
<path d="M1438 8043 c-83 -83 -88 -91 -88 -131 l0 -42 -43 0 -42 0 -343 -343
-343 -343 3 -62 3 -62 473 473 473 473 -3 62 -3 63 -87 -88z"/>
<path d="M2393 7998 l-93 -93 0 -65 0 -65 96 96 95 95 -3 62 -3 63 -92 -93z"/>
<path d="M4525 7132 l-920 -923 67 3 68 3 855 855 856 855 -3 65 -3 65 -920
-923z"/>
<path d="M6308 7913 l-88 -88 0 -65 0 -65 91 91 90 90 -3 62 -3 63 -87 -88z"/>
<path d="M1052 7457 l-473 -473 3 -62 3 -62 473 473 473 473 -3 62 -3 62 -473
-473z"/>
<path d="M2384 7789 l-85 -85 3 -62 3 -62 144 144 144 144 -62 4 -61 3 -86
-86z"/>
<path d="M935 7863 c-90 -19 -113 -33 -211 -133 -54 -55 -105 -115 -112 -133
-12 -28 -33 -129 -28 -134 1 -1 94 90 206 202 198 198 208 212 145 198z"/>
<path d="M822 7627 l-243 -243 3 -62 3 -62 305 305 305 305 -65 0 -65 0 -243
-243z"/>
<path d="M2482 7687 l-183 -183 3 -62 3 -62 245 245 245 245 -65 0 -65 0 -183
-183z"/>
<path d="M2582 7587 l-283 -283 3 -62 3 -62 345 345 345 345 -65 0 -65 0 -283
-283z"/>
<path d="M2682 7487 l-383 -383 3 -62 3 -62 445 445 445 445 -65 0 -65 0 -383
-383z"/>
<path d="M2697 7303 c-311 -313 -683 -685 -826 -828 l-261 -260 62 -3 62 -3
830 830 831 831 -66 0 -65 0 -567 -567z"/>
<path d="M2635 7040 l-830 -830 65 0 65 0 830 830 830 830 -65 0 -65 0 -830
-830z"/>
<path d="M2835 7040 l-830 -830 65 0 65 0 830 830 830 830 -65 0 -65 0 -830
-830z"/>
<path d="M3035 7040 l-830 -830 65 0 65 0 830 830 830 830 -65 0 -65 0 -830
-830z"/>
<path d="M3235 7040 l-830 -830 65 0 65 0 830 830 830 830 -65 0 -65 0 -830
-830z"/>
<path d="M3435 7040 l-830 -830 65 0 65 0 830 830 830 830 -65 0 -65 0 -830
-830z"/>
<path d="M3635 7040 l-830 -830 65 0 65 0 830 830 830 830 -65 0 -65 0 -830
-830z"/>
<path d="M3835 7040 l-830 -830 65 0 65 0 830 830 830 830 -65 0 -65 0 -830
-830z"/>
<path d="M4035 7040 l-830 -830 65 0 65 0 830 830 830 830 -65 0 -65 0 -830
-830z"/>
<path d="M4235 7040 l-830 -830 65 0 65 0 830 830 830 830 -65 0 -65 0 -830
-830z"/>
<path d="M6342 7747 l-123 -123 3 -62 3 -62 185 185 185 185 -65 0 -65 0 -123
-123z"/>
<path d="M4625 7032 l-820 -823 67 3 68 3 755 755 756 755 -3 65 -3 65 -820
-823z"/>
<path d="M87 7692 l-87 -87 0 -65 0 -64 64 63 c55 54 65 70 76 119 7 31 18 72
26 90 7 17 12 32 11 32 -1 0 -42 -39 -90 -88z"/>
<path d="M1052 7257 l-473 -473 3 -62 3 -62 473 473 473 473 -3 62 -3 62 -473
-473z"/>
<path d="M4708 6915 l-737 -740 -41 -98 c-23 -54 -40 -100 -38 -102 2 -2 354
346 781 773 l778 777 -3 65 -3 65 -737 -740z"/>
<path d="M1052 7057 l-473 -473 3 -62 3 -62 473 473 473 473 -3 62 -3 62 -473
-473z"/>
<path d="M58 7463 l-58 -59 0 -64 0 -65 61 61 60 60 -3 63 -3 62 -57 -58z"/>
<path d="M1052 6857 l-473 -473 3 -62 3 -62 473 473 473 473 -3 62 -3 62 -473
-473z"/>
<path d="M58 7263 l-58 -59 0 -64 0 -65 61 61 60 60 -3 63 -3 62 -57 -58z"/>
<path d="M1065 6670 l-460 -460 65 0 65 0 400 400 400 399 -5 61 -5 60 -460
-460z"/>
<path d="M58 7063 l-58 -59 0 -64 0 -65 61 61 60 60 -3 63 -3 62 -57 -58z"/>
<path d="M1175 6583 l-370 -373 65 0 65 0 324 324 325 325 -17 38 c-8 21 -17
43 -19 48 -2 6 -169 -158 -373 -362z"/>
<path d="M58 6863 l-58 -59 0 -64 0 -65 61 61 60 60 -3 63 -3 62 -57 -58z"/>
<path d="M1308 6513 l-303 -303 65 0 65 0 271 273 270 272 -32 31 -32 31 -304
-304z"/>
<path d="M58 6663 l-58 -59 0 -64 0 -65 61 61 60 60 -3 63 -3 62 -57 -58z"/>
<path d="M1460 6465 l-255 -255 65 0 65 0 238 238 239 239 -44 16 c-24 10 -46
17 -48 17 -3 0 -120 -115 -260 -255z"/>
<path d="M1914 6673 l-50 -4 -229 -229 -230 -230 65 0 65 0 235 235 c148 148
227 234 215 233 -11 -1 -43 -3 -71 -5z"/>
<path d="M58 6463 l-58 -59 0 -64 0 -65 61 61 60 60 -3 63 -3 62 -57 -58z"/>
<path d="M58 6263 l-58 -59 0 -64 0 -65 61 61 60 60 -3 63 -3 62 -57 -58z"/>
<path d="M58 6063 l-58 -59 0 -64 0 -65 61 61 60 60 -3 63 -3 62 -57 -58z"/>
<path d="M58 5863 l-58 -59 0 -64 0 -65 61 61 60 60 -3 63 -3 62 -57 -58z"/>
<path d="M58 5663 l-58 -59 0 -64 0 -65 61 61 60 60 -3 63 -3 62 -57 -58z"/>
<path d="M580 5669 c0 -5 5 -7 10 -4 6 3 10 8 10 11 0 2 -4 4 -10 4 -5 0 -10
-5 -10 -11z"/>
<path d="M627 5632 c-48 -49 -48 -49 -45 -111 l3 -61 110 110 110 110 -66 0
c-64 0 -65 0 -112 -48z"/>
<path d="M727 5532 l-148 -148 3 -62 3 -62 210 210 210 210 -65 0 -65 0 -148
-148z"/>
<path d="M827 5432 l-248 -248 3 -62 3 -62 310 310 310 310 -65 0 -65 0 -248
-248z"/>
<path d="M927 5332 l-348 -348 3 -62 3 -62 410 410 410 410 -65 0 -65 0 -348
-348z"/>
<path d="M1027 5232 l-448 -448 3 -62 3 -62 510 510 510 510 -65 0 -65 0 -448
-448z"/>
<path d="M1127 5132 l-548 -548 3 -62 3 -62 610 610 610 610 -65 0 -65 0 -548
-548z"/>
<path d="M1227 5032 l-648 -648 3 -62 3 -62 710 710 710 710 -65 0 -65 0 -648
-648z"/>
<path d="M1327 4932 l-748 -748 3 -62 3 -62 810 810 810 810 -65 0 -65 0 -748
-748z"/>
<path d="M1427 4832 l-848 -848 3 -62 3 -62 910 910 910 910 -65 0 -65 0 -848
-848z"/>
<path d="M1527 4732 l-948 -948 3 -62 3 -62 1010 1010 1010 1010 -65 0 -65 0
-948 -948z"/>
<path d="M1627 4632 l-1048 -1048 3 -62 3 -62 1110 1110 1110 1110 -65 0 -65
0 -1048 -1048z"/>
<path d="M1727 4532 l-1148 -1148 3 -62 3 -62 1210 1210 1210 1210 -65 0 -65
0 -1148 -1148z"/>
<path d="M1827 4432 l-1248 -1248 3 -62 3 -62 1310 1310 1310 1310 -65 0 -65
0 -1248 -1248z"/>
<path d="M1927 4332 l-1347 -1347 0 -65 0 -65 490 490 c429 429 490 494 490
520 0 117 109 225 226 225 25 0 138 109 824 795 l795 795 -65 0 -65 0 -1348
-1348z"/>
<path d="M3235 5440 l-240 -240 65 0 65 0 240 240 240 240 -65 0 -65 0 -240
-240z"/>
<path d="M58 5463 l-58 -59 0 -64 0 -65 61 61 60 60 -3 63 -3 62 -57 -58z"/>
<path d="M58 5263 l-58 -59 0 -64 0 -65 61 61 60 60 -3 63 -3 62 -57 -58z"/>
<path d="M58 5063 l-58 -59 0 -64 0 -65 61 61 60 60 -3 63 -3 62 -57 -58z"/>
<path d="M2340 4545 l-455 -455 65 0 65 0 387 388 387 387 3 68 c2 37 3 67 3
67 0 0 -205 -205 -455 -455z"/>
<path d="M58 4863 l-58 -59 0 -64 0 -65 61 61 60 60 -3 63 -3 62 -57 -58z"/>
<path d="M2435 4440 l-350 -350 65 0 65 0 288 288 288 288 -3 62 -3 62 -350
-350z"/>
<path d="M58 4663 l-58 -59 0 -64 0 -65 61 61 60 60 -3 63 -3 62 -57 -58z"/>
<path d="M2536 4341 l-250 -250 30 -11 c16 -5 36 -14 45 -19 13 -7 59 34 226
202 l210 212 -6 58 -6 57 -249 -249z"/>
<path d="M58 4463 l-58 -59 0 -64 0 -65 61 61 60 60 -3 63 -3 62 -57 -58z"/>
<path d="M2612 4217 l-193 -194 23 -36 c13 -20 25 -36 28 -37 3 0 92 87 199
194 l193 193 -23 36 c-13 20 -26 37 -29 37 -3 0 -92 -87 -198 -193z"/>
<path d="M58 4263 l-58 -59 0 -64 0 -65 61 61 60 60 -3 63 -3 62 -57 -58z"/>
<path d="M2690 4095 l-211 -211 3 -62 3 -62 257 257 257 258 -49 16 -49 15
-211 -211z"/>
<path d="M2777 3982 l-297 -297 0 -65 0 -65 155 155 c94 93 158 165 161 180 2
14 16 49 30 77 30 60 92 107 153 118 30 5 55 24 132 101 l94 94 -65 0 -65 0
-298 -298z"/>
<path d="M3180 4185 l-95 -95 65 0 65 0 95 95 95 95 -65 0 -65 0 -95 -95z"/>
<path d="M58 4063 l-58 -59 0 -64 0 -65 61 61 60 60 -3 63 -3 62 -57 -58z"/>
<path d="M58 3863 l-58 -59 0 -64 0 -65 61 61 60 60 -3 63 -3 62 -57 -58z"/>
<path d="M3873 3678 l-153 -153 0 -65 0 -65 156 156 155 155 -3 62 -3 62 -152
-152z"/>
<path d="M2633 3638 l-153 -153 0 -65 0 -65 156 156 155 155 -3 62 -3 62 -152
-152z"/>
<path d="M1067 3272 l-488 -488 3 -62 3 -62 488 488 488 488 -3 62 -3 62 -488
-488z"/>
<path d="M58 3663 l-58 -59 0 -64 0 -65 61 61 60 60 -3 63 -3 62 -57 -58z"/>
<path d="M3864 3468 c-89 -90 -171 -180 -184 -202 -13 -21 -46 -53 -74 -71
-28 -18 -91 -74 -141 -124 l-90 -91 65 0 65 0 263 263 263 263 -3 62 -3 62
-161 -162z"/>
<path d="M2481 3286 l-304 -304 62 -4 61 -3 246 246 245 245 -3 62 -3 62 -304
-304z"/>
<path d="M1067 3072 l-488 -488 3 -62 3 -62 488 488 488 488 -3 62 -3 62 -488
-488z"/>
<path d="M58 3463 l-58 -59 0 -64 0 -65 61 61 60 60 -3 63 -3 62 -57 -58z"/>
<path d="M3793 3198 l-231 -233 43 -21 42 -22 197 197 196 196 -8 58 -7 57
-232 -232z"/>
<path d="M2564 3169 c-120 -120 -214 -219 -207 -219 6 0 25 -11 40 -24 l29
-25 197 197 c154 154 194 200 187 212 -5 8 -10 27 -10 42 0 15 -4 29 -8 32 -5
3 -107 -94 -228 -215z"/>
<path d="M1068 2873 l-488 -488 0 -65 0 -65 505 505 c278 278 505 509 504 515
0 5 -8 27 -17 48 l-17 37 -487 -487z"/>
<path d="M58 3263 l-58 -59 0 -64 0 -65 61 61 60 60 -3 63 -3 62 -57 -58z"/>
<path d="M3870 3075 c-182 -183 -192 -194 -180 -216 7 -12 16 -33 19 -46 5
-21 28 -2 212 184 l207 208 -33 31 -32 32 -193 -193z"/>
<path d="M2652 3057 l-193 -193 14 -52 13 -51 214 214 c118 118 212 216 209
217 -2 2 -18 15 -34 30 l-31 28 -192 -193z"/>
<path d="M1101 2706 l-522 -522 3 -62 3 -62 558 558 558 558 -39 26 -39 26
-522 -522z"/>
<path d="M3947 2952 l-227 -227 0 -65 0 -65 280 280 280 280 -53 12 c-28 7
-52 12 -52 13 0 0 -103 -102 -228 -228z"/>
<path d="M2219 3163 l-65 -4 -89 -89 -90 -90 65 0 65 0 95 95 c52 52 92 94 90
93 -3 -1 -35 -3 -71 -5z"/>
<path d="M2722 2927 l-242 -242 0 -65 0 -65 300 300 c164 164 298 300 297 301
-1 1 -27 4 -57 7 l-56 7 -242 -243z"/>
<path d="M1168 2573 l-587 -588 6 -48 c3 -26 9 -49 13 -52 3 -2 294 284 645
636 l639 639 -65 0 -64 0 -587 -587z"/>
<path d="M1865 3070 l-90 -90 65 0 65 0 90 90 90 90 -65 0 -65 0 -90 -90z"/>
<path d="M3062 3067 l-93 -93 68 4 68 4 90 89 90 89 -65 0 -65 0 -93 -93z"/>
<path d="M3265 3070 l-90 -90 65 0 65 0 90 90 90 90 -65 0 -65 0 -90 -90z"/>
<path d="M4250 3055 l-104 -104 49 14 c26 8 62 15 79 15 26 0 46 15 121 90
l90 90 -65 0 -65 0 -105 -105z"/>
<path d="M4465 3070 l-90 -90 65 0 65 0 90 90 90 90 -65 0 -65 0 -90 -90z"/>
<path d="M58 3063 l-58 -59 0 -64 0 -65 61 61 60 60 -3 63 -3 62 -57 -58z"/>
<path d="M58 2863 l-58 -59 0 -64 0 -65 61 61 60 60 -3 63 -3 62 -57 -58z"/>
<path d="M3887 2692 l-167 -167 0 -65 0 -65 155 155 c148 148 155 157 155 195
1 22 7 57 14 78 8 20 13 37 12 37 -1 0 -77 -75 -169 -168z"/>
<path d="M2637 2642 l-157 -157 0 -65 0 -65 154 154 153 153 6 67 c3 36 4 67
3 68 -1 1 -73 -68 -159 -155z"/>
<path d="M6565 2170 l-600 -600 65 0 65 0 538 538 538 538 -3 62 -3 62 -600
-600z"/>
<path d="M1086 2291 c-496 -496 -479 -476 -438 -528 l17 -23 448 448 448 448
-3 62 -3 62 -469 -469z"/>
<path d="M58 2663 l-58 -59 0 -64 0 -65 61 61 60 60 -3 63 -3 62 -57 -58z"/>
<path d="M3873 2478 c-150 -150 -153 -154 -153 -196 0 -23 -7 -59 -15 -80 -13
-30 15 -6 155 134 l171 170 -3 62 -3 62 -152 -152z"/>
<path d="M2633 2438 c-128 -129 -153 -158 -153 -183 -1 -95 -117 -205 -216
-205 -12 0 -115 -96 -259 -240 l-240 -240 65 0 65 0 448 448 448 448 -3 62 -3
62 -152 -152z"/>
<path d="M6665 2070 l-500 -500 65 0 65 0 438 438 438 438 -3 62 -3 62 -500
-500z"/>
<path d="M1125 2130 l-430 -431 35 -30 35 -29 398 398 398 398 -3 62 -3 62
-430 -430z"/>
<path d="M58 2463 l-58 -59 0 -64 0 -65 61 61 60 60 -3 63 -3 62 -57 -58z"/>
<path d="M3595 2000 l-430 -430 65 0 65 0 368 368 368 368 -3 62 -3 62 -430
-430z"/>
<path d="M2375 1980 l-410 -410 65 0 65 0 348 348 348 348 -3 62 -3 62 -410
-410z"/>
<path d="M6765 1970 l-400 -400 65 0 65 0 338 338 338 338 -3 62 -3 62 -400
-400z"/>
<path d="M1181 1986 l-373 -373 48 -17 49 -16 328 328 328 328 -3 62 -3 62
-374 -374z"/>
<path d="M58 2263 l-58 -59 0 -64 0 -65 61 61 60 60 -3 63 -3 62 -57 -58z"/>
<path d="M3695 1900 l-330 -330 65 0 65 0 290 289 290 288 -20 41 c-11 23 -22
41 -25 42 -3 0 -154 -148 -335 -330z"/>
<path d="M2485 1890 l-320 -320 65 0 65 0 281 280 c154 155 277 283 272 286
-4 3 -16 21 -26 40 l-17 34 -320 -320z"/>
<path d="M1270 1875 l-305 -305 65 0 65 0 269 269 269 269 -28 36 c-15 20 -28
36 -29 36 -1 0 -138 -137 -306 -305z"/>
<path d="M6865 1870 l-300 -300 65 0 65 0 238 238 238 238 -3 62 -3 62 -300
-300z"/>
<path d="M58 2063 l-58 -59 0 -64 0 -65 61 61 60 60 -3 63 -3 62 -57 -58z"/>
<path d="M3835 1840 l-270 -270 65 0 65 0 245 245 c134 134 242 246 240 248
-3 2 -21 13 -40 25 l-36 21 -269 -269z"/>
<path d="M2625 1830 l-260 -260 65 0 65 0 243 243 243 243 -38 13 c-21 7 -43
14 -48 17 -6 2 -127 -113 -270 -256z"/>
<path d="M1420 1825 l-255 -255 65 0 65 0 239 239 239 239 -34 10 c-19 5 -41
13 -49 16 -10 4 -93 -72 -270 -249z"/>
<path d="M3560 2064 c-19 -7 -53 -13 -75 -13 -39 -1 -48 -9 -280 -241 l-240
-240 65 0 65 0 255 255 c140 140 253 254 250 254 -3 -1 -21 -7 -40 -15z"/>
<path d="M4710 2053 l-66 -4 -239 -239 -240 -240 65 0 65 0 245 245 c135 135
243 244 240 243 -3 -1 -34 -3 -70 -5z"/>
<path d="M1605 1810 l-240 -240 65 0 65 0 240 240 240 240 -65 0 -65 0 -240
-240z"/>
<path d="M1805 1810 l-240 -240 65 0 65 0 240 240 240 240 -65 0 -65 0 -240
-240z"/>
<path d="M2805 1810 l-240 -240 65 0 65 0 240 240 240 240 -65 0 -65 0 -240
-240z"/>
<path d="M3005 1810 l-240 -240 65 0 65 0 240 240 240 240 -65 0 -65 0 -240
-240z"/>
<path d="M4005 1810 l-240 -240 65 0 65 0 240 240 240 240 -65 0 -65 0 -240
-240z"/>
<path d="M4205 1810 l-240 -240 65 0 65 0 240 240 240 240 -65 0 -65 0 -240
-240z"/>
<path d="M6965 1769 l-200 -201 45 7 c92 15 122 33 223 133 83 82 100 105 111
147 15 52 27 115 23 115 -1 0 -92 -90 -202 -201z"/>
<path d="M58 1863 l-58 -59 0 -64 0 -65 66 66 65 66 -8 57 -8 57 -57 -58z"/>
<path d="M72 1677 l-72 -72 0 -65 0 -65 90 90 90 90 -18 47 -18 48 -72 -73z"/>
<path d="M97 1502 l-97 -97 0 -65 0 -65 122 122 122 122 -19 40 c-10 23 -21
41 -24 41 -4 0 -50 -44 -104 -98z"/>
<path d="M136 1341 l-137 -137 3 -62 3 -62 163 163 163 163 -29 36 -29 37
-137 -138z"/>
<path d="M9515 720 l-720 -720 65 0 65 0 658 658 658 658 -3 62 -3 62 -720
-720z"/>
<path d="M182 1187 l-183 -183 3 -62 3 -62 213 213 212 213 -33 32 -33 32
-182 -183z"/>
<path d="M232 1037 l-232 -232 0 -65 0 -65 274 274 275 275 -34 23 c-19 13
-38 23 -42 23 -5 0 -113 -105 -241 -233z"/>
<path d="M9615 620 l-620 -620 65 0 65 0 558 558 558 558 -3 62 -3 62 -620
-620z"/>
<path d="M296 901 l-296 -296 0 -65 0 -65 340 340 c187 187 336 343 332 346
-4 4 -23 14 -43 22 l-36 15 -297 -297z"/>
<path d="M7070 1160 c-8 -5 -47 -17 -87 -26 l-71 -17 -559 -559 -558 -558 65
0 65 0 585 585 c322 322 583 585 580 585 -3 0 -12 -5 -20 -10z"/>
<path d="M367 772 l-367 -367 0 -65 0 -65 420 420 420 420 -47 12 c-27 7 -50
13 -53 13 -3 0 -170 -165 -373 -368z"/>
<path d="M451 656 l-451 -451 0 -65 0 -65 510 510 c281 281 507 511 503 512
-5 1 -31 3 -60 6 l-51 4 -451 -451z"/>
<path d="M545 550 l-550 -550 65 0 65 0 550 550 550 550 -65 0 -65 0 -550
-550z"/>
<path d="M745 550 l-550 -550 65 0 65 0 550 550 550 550 -65 0 -65 0 -550
-550z"/>
<path d="M945 550 l-550 -550 65 0 65 0 550 550 550 550 -65 0 -65 0 -550
-550z"/>
<path d="M1145 550 l-550 -550 65 0 65 0 550 550 550 550 -65 0 -65 0 -550
-550z"/>
<path d="M1345 550 l-550 -550 65 0 65 0 550 550 550 550 -65 0 -65 0 -550
-550z"/>
<path d="M1545 550 l-550 -550 65 0 65 0 550 550 550 550 -65 0 -65 0 -550
-550z"/>
<path d="M1745 550 l-550 -550 65 0 65 0 550 550 550 550 -65 0 -65 0 -550
-550z"/>
<path d="M1945 550 l-550 -550 65 0 65 0 550 550 550 550 -65 0 -65 0 -550
-550z"/>
<path d="M2145 550 l-550 -550 65 0 65 0 550 550 550 550 -65 0 -65 0 -550
-550z"/>
<path d="M2345 550 l-550 -550 65 0 65 0 550 550 550 550 -65 0 -65 0 -550
-550z"/>
<path d="M2545 550 l-550 -550 65 0 65 0 550 550 550 550 -65 0 -65 0 -550
-550z"/>
<path d="M2745 550 l-550 -550 65 0 65 0 550 550 550 550 -65 0 -65 0 -550
-550z"/>
<path d="M2945 550 l-550 -550 65 0 65 0 550 550 550 550 -65 0 -65 0 -550
-550z"/>
<path d="M3145 550 l-550 -550 65 0 65 0 550 550 550 550 -65 0 -65 0 -550
-550z"/>
<path d="M3345 550 l-550 -550 65 0 65 0 550 550 550 550 -65 0 -65 0 -550
-550z"/>
<path d="M3545 550 l-550 -550 65 0 65 0 550 550 550 550 -65 0 -65 0 -550
-550z"/>
<path d="M3745 550 l-550 -550 65 0 65 0 550 550 550 550 -65 0 -65 0 -550
-550z"/>
<path d="M3945 550 l-550 -550 65 0 65 0 550 550 550 550 -65 0 -65 0 -550
-550z"/>
<path d="M4145 550 l-550 -550 65 0 65 0 550 550 550 550 -65 0 -65 0 -550
-550z"/>
<path d="M4345 550 l-550 -550 65 0 65 0 550 550 550 550 -65 0 -65 0 -550
-550z"/>
<path d="M4545 550 l-550 -550 65 0 65 0 550 550 550 550 -65 0 -65 0 -550
-550z"/>
<path d="M4745 550 l-550 -550 65 0 65 0 550 550 550 550 -65 0 -65 0 -550
-550z"/>
<path d="M4945 550 l-550 -550 65 0 65 0 550 550 550 550 -65 0 -65 0 -550
-550z"/>
<path d="M5145 550 l-550 -550 65 0 65 0 550 550 550 550 -65 0 -65 0 -550
-550z"/>
<path d="M5345 550 l-550 -550 65 0 65 0 550 550 550 550 -65 0 -65 0 -550
-550z"/>
<path d="M5545 550 l-550 -550 65 0 65 0 550 550 550 550 -65 0 -65 0 -550
-550z"/>
<path d="M5745 550 l-550 -550 65 0 65 0 550 550 550 550 -65 0 -65 0 -550
-550z"/>
<path d="M5945 550 l-550 -550 65 0 65 0 550 550 550 550 -65 0 -65 0 -550
-550z"/>
<path d="M6145 550 l-550 -550 65 0 65 0 550 550 550 550 -65 0 -65 0 -550
-550z"/>
<path d="M9715 520 l-520 -520 65 0 65 0 458 458 458 458 -3 62 -3 62 -520
-520z"/>
<path d="M9815 420 l-420 -420 65 0 65 0 358 358 358 358 -3 62 -3 62 -420
-420z"/>
<path d="M9915 320 l-320 -320 65 0 65 0 258 258 258 258 -3 62 -3 62 -320
-320z"/>
<path d="M10015 220 l-220 -220 65 0 65 0 158 158 158 158 -3 62 -3 62 -220
-220z"/>
<path d="M10115 120 l-120 -120 65 0 66 0 57 58 58 59 -3 62 -3 61 -120 -120z"/>
<path d="M10215 20 c-18 -19 -17 -20 3 -20 15 0 22 6 22 20 0 11 -2 20 -3 20
-2 0 -12 -9 -22 -20z"/>
</g>
</svg>
