<?xml version="1.0" standalone="no"?>
<!DOCTYPE svg PUBLIC "-//W3C//DTD SVG 20010904//EN"
 "http://www.w3.org/TR/2001/REC-SVG-20010904/DTD/svg10.dtd">
<svg version="1.0" xmlns="http://www.w3.org/2000/svg"
 width="700.000000pt" height="700.000000pt" viewBox="0 0 700.000000 700.000000"
 preserveAspectRatio="xMidYMid meet">
<metadata>
Created by potrace 1.15, written by Peter Selinger 2001-2017
</metadata>
<g transform="translate(0.000000,700.000000) scale(0.100000,-0.100000)"
fill="#000000" stroke="none">
<path d="M3873 4508 l-482 -482 -33 29 c-17 17 -133 129 -255 250 -123 121
-228 220 -233 220 -12 0 -160 -143 -160 -154 0 -17 660 -662 674 -659 20 4
1136 1106 1136 1121 0 14 -141 157 -155 157 -5 0 -227 -217 -492 -482z"/>
<path d="M2464 3401 c-140 -36 -236 -204 -206 -361 23 -123 79 -203 179 -252
80 -39 144 -42 218 -9 63 28 110 72 143 136 23 44 26 62 26 151 1 95 -1 105
-33 168 -33 67 -82 116 -148 150 -38 19 -135 28 -179 17z"/>
<path d="M4185 3379 c-57 -28 -118 -92 -151 -157 -25 -51 -28 -67 -28 -157 0
-118 13 -153 81 -226 71 -76 177 -107 263 -76 117 43 190 127 220 255 34 146
-43 315 -166 367 -53 22 -169 19 -219 -6z"/>
<path d="M3320 3321 c-161 -34 -266 -214 -230 -394 35 -179 158 -297 310 -297
167 0 290 139 290 328 0 159 -71 283 -198 345 -39 19 -125 28 -172 18z"/>
<path d="M2210 2771 c-51 -27 -61 -31 -73 -31 -22 0 -87 -60 -106 -98 -10 -21
-23 -57 -28 -82 -24 -100 -55 -391 -44 -403 4 -4 176 -6 382 -5 l374 3 2 25
c24 244 61 361 136 426 39 33 134 84 157 84 27 0 5 32 -32 49 -124 53 -130 53
-213 -4 -147 -100 -289 -97 -428 9 -47 36 -92 45 -127 27z"/>
<path d="M3920 2770 c-8 -5 -36 -18 -62 -29 -25 -11 -49 -25 -52 -30 -4 -5 26
-25 66 -44 77 -36 170 -123 181 -169 3 -13 11 -41 17 -63 6 -22 15 -91 20
-154 5 -63 13 -118 18 -123 5 -5 174 -7 378 -6 l369 3 4 35 c4 42 -15 261 -31
345 -21 115 -61 170 -148 207 -79 34 -92 38 -118 38 -16 0 -43 -13 -64 -30
-20 -17 -63 -43 -95 -58 -49 -23 -71 -27 -138 -26 -90 1 -142 20 -220 79 -46
35 -92 44 -125 25z"/>
<path d="M3017 2606 c-145 -60 -176 -122 -211 -431 -26 -224 -26 -233 -2 -239
12 -3 287 -6 612 -6 457 0 594 3 606 13 15 11 15 24 2 147 -41 397 -65 449
-233 518 -79 32 -112 29 -174 -17 -84 -63 -122 -76 -212 -76 -86 0 -127 17
-216 87 -46 35 -93 36 -172 4z"/>
</g>
</svg>
