<?xml version="1.0" encoding="UTF-8" standalone="no"?>
<!DOCTYPE svg PUBLIC "-//W3C//DTD SVG 1.1//EN" "http://www.w3.org/Graphics/SVG/1.1/DTD/svg11.dtd">
<svg width="100%" height="100%" viewBox="0 0 291 306" version="1.1" xmlns="http://www.w3.org/2000/svg" xmlns:xlink="http://www.w3.org/1999/xlink" xml:space="preserve" xmlns:serif="http://www.serif.com/" style="fill-rule:evenodd;clip-rule:evenodd;stroke-linejoin:round;stroke-miterlimit:2;">
    <g transform="matrix(1,0,0,1,-195.671,-201)">
        <g transform="matrix(0.1,0,0,-0.1,0,700)">
            <path d="M3873,4508L3391,4026L3358,4055C3341,4072 3225,4184 3103,4305C2980,4426 2875,4525 2870,4525C2858,4525 2710,4382 2710,4371C2710,4354 3370,3709 3384,3712C3404,3716 4520,4818 4520,4833C4520,4847 4379,4990 4365,4990C4360,4990 4138,4773 3873,4508Z" style="fill:rgb(0,120,96);fill-rule:nonzero;"/>
        </g>
        <g transform="matrix(0.1,0,0,-0.1,0,700)">
            <path d="M2464,3401C2324,3365 2228,3197 2258,3040C2281,2917 2337,2837 2437,2788C2517,2749 2581,2746 2655,2779C2718,2807 2765,2851 2798,2915C2821,2959 2824,2977 2824,3066C2825,3161 2823,3171 2791,3234C2758,3301 2709,3350 2643,3384C2605,3403 2508,3412 2464,3401Z" style="fill:rgb(0,120,96);fill-rule:nonzero;"/>
        </g>
        <g transform="matrix(0.1,0,0,-0.1,0,700)">
            <path d="M4185,3379C4128,3351 4067,3287 4034,3222C4009,3171 4006,3155 4006,3065C4006,2947 4019,2912 4087,2839C4158,2763 4264,2732 4350,2763C4467,2806 4540,2890 4570,3018C4604,3164 4527,3333 4404,3385C4351,3407 4235,3404 4185,3379Z" style="fill:rgb(0,120,96);fill-rule:nonzero;"/>
        </g>
        <g transform="matrix(0.1,0,0,-0.1,0,700)">
            <path d="M3320,3321C3159,3287 3054,3107 3090,2927C3125,2748 3248,2630 3400,2630C3567,2630 3690,2769 3690,2958C3690,3117 3619,3241 3492,3303C3453,3322 3367,3331 3320,3321Z" style="fill:rgb(0,120,96);fill-rule:nonzero;"/>
        </g>
        <g transform="matrix(0.1,0,0,-0.1,0,700)">
            <path d="M2210,2771C2159,2744 2149,2740 2137,2740C2115,2740 2050,2680 2031,2642C2021,2621 2008,2585 2003,2560C1979,2460 1948,2169 1959,2157C1963,2153 2135,2151 2341,2152L2715,2155L2717,2180C2741,2424 2778,2541 2853,2606C2892,2639 2987,2690 3010,2690C3037,2690 3015,2722 2978,2739C2854,2792 2848,2792 2765,2735C2618,2635 2476,2638 2337,2744C2290,2780 2245,2789 2210,2771Z" style="fill:rgb(0,120,96);fill-rule:nonzero;"/>
        </g>
        <g transform="matrix(0.1,0,0,-0.1,0,700)">
            <path d="M3920,2770C3912,2765 3884,2752 3858,2741C3833,2730 3809,2716 3806,2711C3802,2706 3832,2686 3872,2667C3949,2631 4042,2544 4053,2498C4056,2485 4064,2457 4070,2435C4076,2413 4085,2344 4090,2281C4095,2218 4103,2163 4108,2158C4113,2153 4282,2151 4486,2152L4855,2155L4859,2190C4863,2232 4844,2451 4828,2535C4807,2650 4767,2705 4680,2742C4601,2776 4588,2780 4562,2780C4546,2780 4519,2767 4498,2750C4478,2733 4435,2707 4403,2692C4354,2669 4332,2665 4265,2666C4175,2667 4123,2686 4045,2745C3999,2780 3953,2789 3920,2770Z" style="fill:rgb(0,120,96);fill-rule:nonzero;"/>
        </g>
        <g transform="matrix(0.1,0,0,-0.1,0,700)">
            <path d="M3017,2606C2872,2546 2841,2484 2806,2175C2780,1951 2780,1942 2804,1936C2816,1933 3091,1930 3416,1930C3873,1930 4010,1933 4022,1943C4037,1954 4037,1967 4024,2090C3983,2487 3959,2539 3791,2608C3712,2640 3679,2637 3617,2591C3533,2528 3495,2515 3405,2515C3319,2515 3278,2532 3189,2602C3143,2637 3096,2638 3017,2606Z" style="fill:rgb(0,120,96);fill-rule:nonzero;"/>
        </g>
    </g>
</svg>
